<svg xmlns="http://www.w3.org/2000/svg" width="205.888" height="32.134" viewBox="0 3.646 205.888 32.134"><circle fill="#135891" cx="8.86" cy="5.959" r="1.367"/><circle fill="#135891" cx="11.936" cy="5.959" r="1.367"/><circle fill="#135891" cx="15.012" cy="5.959" r="1.367"/><circle fill="#135891" cx="8.86" cy="9.035" r="1.367"/><circle fill="#135891" cx="11.936" cy="9.035" r="1.367"/><circle fill="#135891" cx="15.012" cy="9.035" r="1.367"/><circle fill="#135891" cx="11.936" cy="12.111" r="1.367"/><circle fill="#135891" cx="15.012" cy="12.111" r="1.367"/><circle fill="#135891" cx="18.089" cy="12.111" r="1.367"/><circle fill="#135891" cx="15.012" cy="15.187" r="1.367"/><circle fill="#135891" cx="18.089" cy="15.187" r="1.367"/><circle fill="#135891" cx="21.166" cy="15.187" r="1.367"/><circle fill="#135891" cx="17.748" cy="18.263" r="1.367"/><circle fill="#135891" cx="20.823" cy="18.263" r="1.367"/><circle fill="#135891" cx="23.899" cy="18.263" r="1.367"/><circle fill="#135891" cx="17.748" cy="21.339" r="1.367"/><circle fill="#135891" cx="20.823" cy="21.339" r="1.367"/><circle fill="#135891" cx="23.899" cy="21.339" r="1.367"/><circle fill="#135891" cx="17.748" cy="24.415" r="1.367"/><circle fill="#135891" cx="20.823" cy="24.415" r="1.367"/><circle fill="#135891" cx="23.899" cy="24.415" r="1.367"/><circle fill="#135891" cx="17.748" cy="27.491" r="1.367"/><circle fill="#135891" cx="20.823" cy="27.491" r="1.367"/><circle fill="#135891" cx="23.899" cy="27.491" r="1.367"/><circle fill="#135891" cx="17.748" cy="30.567" r="1.367"/><circle fill="#135891" cx="20.823" cy="30.567" r="1.367"/><circle fill="#135891" cx="23.899" cy="30.567" r="1.367"/><circle fill="#135891" cx="8.518" cy="30.567" r="1.367"/><circle fill="#135891" cx="11.594" cy="30.567" r="1.367"/><circle fill="#135891" cx="2.367" cy="30.567" r="1.367"/><circle fill="#135891" cx="5.442" cy="30.567" r="1.367"/><circle fill="#135891" cx="8.518" cy="27.491" r="1.367"/><circle fill="#135891" cx="2.367" cy="27.491" r="1.367"/><circle fill="#135891" cx="5.442" cy="27.491" r="1.367"/><circle fill="#135891" cx="8.518" cy="24.415" r="1.367"/><circle fill="#135891" cx="2.367" cy="24.415" r="1.367"/><circle fill="#135891" cx="5.442" cy="24.415" r="1.367"/><circle fill="#135891" cx="8.518" cy="21.339" r="1.367"/><circle fill="#135891" cx="2.367" cy="21.339" r="1.367"/><circle fill="#135891" cx="5.442" cy="21.339" r="1.367"/><circle fill="#135891" cx="14.671" cy="30.567" r="1.367"/><circle fill="#135891" cx="17.748" cy="33.644" r="1.367"/><circle fill="#135891" cx="20.823" cy="33.644" r="1.367"/><circle fill="#135891" cx="8.518" cy="33.644" r="1.367"/><circle fill="#135891" cx="11.594" cy="33.644" r="1.367"/><circle fill="#135891" cx="5.442" cy="33.644" r="1.367"/><circle fill="#135891" cx="14.671" cy="33.644" r="1.367"/><circle fill="#135891" cx="30.051" cy="12.111" r="1.367"/><circle fill="#135891" cx="33.127" cy="12.111" r="1.367"/><circle fill="#135891" cx="36.204" cy="12.111" r="1.367"/><circle fill="#135891" cx="30.051" cy="9.035" r="1.367"/><circle fill="#135891" cx="33.127" cy="9.035" r="1.367"/><circle fill="#135891" cx="36.204" cy="9.035" r="1.367"/><circle fill="#135891" cx="33.127" cy="5.959" r="1.367"/><circle fill="#135891" cx="36.204" cy="5.959" r="1.367"/><circle fill="#135891" cx="39.279" cy="5.959" r="1.367"/><circle fill="#135891" cx="42.355" cy="5.959" r="1.367"/><circle fill="#135891" cx="45.431" cy="5.959" r="1.367"/><circle fill="#135891" cx="48.507" cy="5.959" r="1.367"/><circle fill="#135891" cx="39.279" cy="9.035" r="1.367"/><circle fill="#135891" cx="42.355" cy="9.035" r="1.367"/><circle fill="#135891" cx="45.431" cy="9.035" r="1.367"/><circle fill="#135891" cx="48.507" cy="9.035" r="1.367"/><circle fill="#135891" cx="42.355" cy="12.111" r="1.367"/><circle fill="#135891" cx="45.431" cy="12.111" r="1.367"/><circle fill="#135891" cx="48.507" cy="12.111" r="1.367"/><circle fill="#135891" cx="42.355" cy="15.187" r="1.367"/><circle fill="#135891" cx="45.431" cy="15.187" r="1.367"/><circle fill="#135891" cx="48.507" cy="15.187" r="1.367"/><circle fill="#135891" cx="42.355" cy="18.263" r="1.367"/><circle fill="#135891" cx="45.431" cy="18.263" r="1.367"/><circle fill="#135891" cx="48.507" cy="18.263" r="1.367"/><circle fill="#135891" cx="42.355" cy="21.339" r="1.367"/><circle fill="#135891" cx="45.431" cy="21.339" r="1.367"/><circle fill="#135891" cx="48.507" cy="21.339" r="1.367"/><circle fill="#135891" cx="33.127" cy="21.339" r="1.367"/><circle fill="#135891" cx="36.204" cy="21.339" r="1.367"/><circle fill="#135891" cx="39.279" cy="21.339" r="1.367"/><circle fill="#135891" cx="42.355" cy="24.415" r="1.367"/><circle fill="#135891" cx="45.431" cy="24.415" r="1.367"/><circle fill="#135891" cx="48.507" cy="24.415" r="1.367"/><circle fill="#135891" cx="42.355" cy="27.491" r="1.367"/><circle fill="#135891" cx="45.431" cy="27.491" r="1.367"/><circle fill="#135891" cx="48.507" cy="27.491" r="1.367"/><circle fill="#135891" cx="42.355" cy="30.567" r="1.367"/><circle fill="#135891" cx="45.431" cy="30.567" r="1.367"/><circle fill="#135891" cx="48.507" cy="30.567" r="1.367"/><circle fill="#135891" cx="33.127" cy="30.567" r="1.367"/><circle fill="#135891" cx="30.051" cy="30.567" r="1.367"/><circle fill="#135891" cx="36.204" cy="30.567" r="1.367"/><circle fill="#135891" cx="33.127" cy="27.491" r="1.367"/><circle fill="#135891" cx="30.051" cy="27.491" r="1.367"/><circle fill="#135891" cx="36.204" cy="27.491" r="1.367"/><circle fill="#135891" cx="33.127" cy="24.415" r="1.367"/><circle fill="#135891" cx="30.051" cy="24.415" r="1.367"/><circle fill="#135891" cx="36.204" cy="24.415" r="1.367"/><circle fill="#135891" cx="39.279" cy="30.567" r="1.367"/><circle fill="#135891" cx="42.355" cy="33.644" r="1.367"/><circle fill="#135891" cx="45.431" cy="33.644" r="1.367"/><circle fill="#135891" cx="33.127" cy="33.644" r="1.367"/><circle fill="#135891" cx="36.204" cy="33.644" r="1.367"/><circle fill="#135891" cx="39.279" cy="33.644" r="1.367"/><circle fill="#135891" cx="58.078" cy="5.959" r="1.367"/><circle fill="#135891" cx="61.153" cy="5.959" r="1.367"/><circle fill="#135891" cx="64.229" cy="5.959" r="1.367"/><circle fill="#135891" cx="58.078" cy="9.035" r="1.367"/><circle fill="#135891" cx="61.153" cy="9.035" r="1.367"/><circle fill="#135891" cx="64.229" cy="9.035" r="1.367"/><circle fill="#135891" cx="67.305" cy="9.035" r="1.367"/><circle fill="#135891" cx="70.382" cy="9.035" r="1.367"/><circle fill="#135891" cx="64.229" cy="12.111" r="1.367"/><circle fill="#135891" cx="67.305" cy="12.111" r="1.367"/><circle fill="#135891" cx="70.382" cy="12.111" r="1.367"/><circle fill="#135891" cx="64.229" cy="15.187" r="1.367"/><circle fill="#135891" cx="67.305" cy="15.187" r="1.367"/><circle fill="#135891" cx="70.382" cy="15.187" r="1.367"/><circle fill="#135891" cx="64.229" cy="18.263" r="1.367"/><circle fill="#135891" cx="67.305" cy="18.263" r="1.367"/><circle fill="#135891" cx="70.382" cy="18.263" r="1.367"/><circle fill="#135891" cx="67.305" cy="21.339" r="1.367"/><circle fill="#135891" cx="70.382" cy="21.339" r="1.367"/><circle fill="#135891" cx="73.459" cy="21.339" r="1.367"/><circle fill="#135891" cx="58.078" cy="21.339" r="1.367"/><circle fill="#135891" cx="61.153" cy="21.339" r="1.367"/><circle fill="#135891" cx="58.078" cy="24.415" r="1.367"/><circle fill="#135891" cx="55.002" cy="24.415" r="1.367"/><circle fill="#135891" cx="61.153" cy="24.415" r="1.367"/><circle fill="#135891" cx="58.078" cy="27.491" r="1.367"/><circle fill="#135891" cx="55.002" cy="27.491" r="1.367"/><circle fill="#135891" cx="61.153" cy="27.491" r="1.367"/><circle fill="#135891" cx="58.078" cy="30.567" r="1.367"/><circle fill="#135891" cx="55.002" cy="30.567" r="1.367"/><circle fill="#135891" cx="61.153" cy="30.567" r="1.367"/><circle fill="#135891" cx="61.153" cy="33.644" r="1.367"/><circle fill="#135891" cx="58.078" cy="33.644" r="1.367"/><circle fill="#135891" cx="64.229" cy="33.644" r="1.367"/><circle fill="#135891" cx="70.382" cy="33.644" r="1.367"/><circle fill="#135891" cx="67.305" cy="33.644" r="1.367"/><circle fill="#135891" cx="73.459" cy="33.644" r="1.367"/><circle fill="#135891" cx="67.305" cy="30.567" r="1.367"/><circle fill="#135891" cx="64.229" cy="30.567" r="1.367"/><circle fill="#135891" cx="70.382" cy="30.567" r="1.367"/><circle fill="#135891" cx="73.459" cy="30.567" r="1.367"/><circle fill="#135891" cx="76.535" cy="30.567" r="1.367"/><circle fill="#135891" cx="70.382" cy="27.491" r="1.367"/><circle fill="#135891" cx="73.459" cy="27.491" r="1.367"/><circle fill="#135891" cx="76.535" cy="27.491" r="1.367"/><circle fill="#135891" cx="70.382" cy="24.415" r="1.367"/><circle fill="#135891" cx="73.459" cy="24.415" r="1.367"/><circle fill="#135891" cx="76.535" cy="24.415" r="1.367"/><circle fill="#135891" cx="64.229" cy="21.339" r="1.367"/><circle fill="#135891" cx="110.373" cy="5.959" r="1.367"/><circle fill="#135891" cx="113.448" cy="5.959" r="1.367"/><circle fill="#135891" cx="116.523" cy="5.959" r="1.367"/><circle fill="#135891" cx="110.373" cy="9.035" r="1.367"/><circle fill="#135891" cx="113.448" cy="9.035" r="1.367"/><circle fill="#135891" cx="116.523" cy="9.035" r="1.367"/><circle fill="#135891" cx="119.599" cy="9.035" r="1.367"/><circle fill="#135891" cx="122.676" cy="9.035" r="1.367"/><circle fill="#135891" cx="116.523" cy="12.111" r="1.367"/><circle fill="#135891" cx="119.599" cy="12.111" r="1.367"/><circle fill="#135891" cx="122.676" cy="12.111" r="1.367"/><circle fill="#135891" cx="116.523" cy="15.187" r="1.367"/><circle fill="#135891" cx="119.599" cy="15.187" r="1.367"/><circle fill="#135891" cx="122.676" cy="15.187" r="1.367"/><circle fill="#135891" cx="116.523" cy="18.263" r="1.367"/><circle fill="#135891" cx="119.599" cy="18.263" r="1.367"/><circle fill="#135891" cx="122.676" cy="18.263" r="1.367"/><circle fill="#135891" cx="119.599" cy="21.339" r="1.367"/><circle fill="#135891" cx="122.676" cy="21.339" r="1.367"/><circle fill="#135891" cx="125.752" cy="21.339" r="1.367"/><circle fill="#135891" cx="110.373" cy="21.339" r="1.367"/><circle fill="#135891" cx="113.448" cy="21.339" r="1.367"/><circle fill="#135891" cx="110.373" cy="24.415" r="1.367"/><circle fill="#135891" cx="107.296" cy="24.415" r="1.367"/><circle fill="#135891" cx="113.448" cy="24.415" r="1.367"/><circle fill="#135891" cx="110.373" cy="27.491" r="1.367"/><circle fill="#135891" cx="107.296" cy="27.491" r="1.367"/><circle fill="#135891" cx="113.448" cy="27.491" r="1.367"/><circle fill="#135891" cx="110.373" cy="30.567" r="1.367"/><circle fill="#135891" cx="107.296" cy="30.567" r="1.367"/><circle fill="#135891" cx="113.448" cy="30.567" r="1.367"/><circle fill="#135891" cx="113.448" cy="33.644" r="1.367"/><circle fill="#135891" cx="110.373" cy="33.644" r="1.367"/><circle fill="#135891" cx="116.523" cy="33.644" r="1.367"/><circle fill="#135891" cx="122.676" cy="33.644" r="1.367"/><circle fill="#135891" cx="119.599" cy="33.644" r="1.367"/><circle fill="#135891" cx="125.752" cy="33.644" r="1.367"/><circle fill="#135891" cx="119.599" cy="30.567" r="1.367"/><circle fill="#135891" cx="116.523" cy="30.567" r="1.367"/><circle fill="#135891" cx="122.676" cy="30.567" r="1.367"/><circle fill="#135891" cx="125.752" cy="30.567" r="1.367"/><circle fill="#135891" cx="128.829" cy="30.567" r="1.367"/><circle fill="#135891" cx="122.676" cy="27.491" r="1.367"/><circle fill="#135891" cx="125.752" cy="27.491" r="1.367"/><circle fill="#135891" cx="128.829" cy="27.491" r="1.367"/><circle fill="#135891" cx="122.676" cy="24.415" r="1.367"/><circle fill="#135891" cx="125.752" cy="24.415" r="1.367"/><circle fill="#135891" cx="128.829" cy="24.415" r="1.367"/><circle fill="#135891" cx="116.523" cy="21.339" r="1.367"/><circle fill="#135891" cx="82.344" cy="12.111" r="1.367"/><circle fill="#135891" cx="85.421" cy="12.111" r="1.367"/><circle fill="#135891" cx="88.498" cy="12.111" r="1.367"/><circle fill="#135891" cx="82.344" cy="9.035" r="1.367"/><circle fill="#135891" cx="85.421" cy="9.035" r="1.367"/><circle fill="#135891" cx="88.498" cy="9.035" r="1.367"/><circle fill="#135891" cx="91.573" cy="9.035" r="1.367"/><circle fill="#135891" cx="94.649" cy="9.035" r="1.367"/><circle fill="#135891" cx="97.725" cy="9.035" r="1.367"/><circle fill="#135891" cx="85.421" cy="5.959" r="1.367"/><circle fill="#135891" cx="88.498" cy="5.959" r="1.367"/><circle fill="#135891" cx="91.573" cy="5.959" r="1.367"/><circle fill="#135891" cx="94.649" cy="5.959" r="1.367"/><circle fill="#135891" cx="97.725" cy="5.959" r="1.367"/><circle fill="#135891" cx="100.802" cy="9.035" r="1.367"/><circle fill="#135891" cx="94.649" cy="12.111" r="1.367"/><circle fill="#135891" cx="97.725" cy="12.111" r="1.367"/><circle fill="#135891" cx="100.802" cy="12.111" r="1.367"/><circle fill="#135891" cx="94.649" cy="15.187" r="1.367"/><circle fill="#135891" cx="97.725" cy="15.187" r="1.367"/><circle fill="#135891" cx="100.802" cy="15.187" r="1.367"/><circle fill="#135891" cx="94.649" cy="18.263" r="1.367"/><circle fill="#135891" cx="97.725" cy="18.263" r="1.367"/><circle fill="#135891" cx="100.802" cy="18.263" r="1.367"/><circle fill="#135891" cx="94.649" cy="21.339" r="1.367"/><circle fill="#135891" cx="97.725" cy="21.339" r="1.367"/><circle fill="#135891" cx="100.802" cy="21.339" r="1.367"/><circle fill="#135891" cx="94.649" cy="24.415" r="1.367"/><circle fill="#135891" cx="97.725" cy="24.415" r="1.367"/><circle fill="#135891" cx="100.802" cy="24.415" r="1.367"/><circle fill="#135891" cx="94.649" cy="27.491" r="1.367"/><circle fill="#135891" cx="97.725" cy="27.491" r="1.367"/><circle fill="#135891" cx="100.802" cy="27.491" r="1.367"/><circle fill="#135891" cx="94.649" cy="30.567" r="1.367"/><circle fill="#135891" cx="97.725" cy="30.567" r="1.367"/><circle fill="#135891" cx="100.802" cy="30.567" r="1.367"/><circle fill="#135891" cx="85.421" cy="30.567" r="1.367"/><circle fill="#135891" cx="82.344" cy="30.567" r="1.367"/><circle fill="#135891" cx="88.498" cy="30.567" r="1.367"/><circle fill="#135891" cx="85.421" cy="27.491" r="1.367"/><circle fill="#135891" cx="82.344" cy="27.491" r="1.367"/><circle fill="#135891" cx="88.498" cy="27.491" r="1.367"/><circle fill="#135891" cx="85.421" cy="24.415" r="1.367"/><circle fill="#135891" cx="82.344" cy="24.415" r="1.367"/><circle fill="#135891" cx="88.498" cy="24.415" r="1.367"/><circle fill="#135891" cx="91.573" cy="30.567" r="1.367"/><circle fill="#135891" cx="94.649" cy="33.644" r="1.367"/><circle fill="#135891" cx="97.725" cy="33.644" r="1.367"/><circle fill="#135891" cx="85.421" cy="33.644" r="1.367"/><circle fill="#135891" cx="88.498" cy="33.644" r="1.367"/><circle fill="#135891" cx="91.573" cy="33.644" r="1.367"/><circle fill="#135891" cx="137.714" cy="5.959" r="1.367"/><circle fill="#135891" cx="140.791" cy="5.959" r="1.367"/><circle fill="#135891" cx="143.866" cy="5.959" r="1.367"/><circle fill="#135891" cx="146.942" cy="5.959" r="1.367"/><circle fill="#135891" cx="150.018" cy="5.959" r="1.367"/><circle fill="#135891" cx="153.094" cy="5.959" r="1.367"/><circle fill="#135891" cx="137.714" cy="9.035" r="1.367"/><circle fill="#135891" cx="140.791" cy="9.035" r="1.367"/><circle fill="#135891" cx="143.866" cy="9.035" r="1.367"/><circle fill="#135891" cx="146.942" cy="9.035" r="1.367"/><circle fill="#135891" cx="150.018" cy="9.035" r="1.367"/><circle fill="#135891" cx="153.094" cy="9.035" r="1.367"/><circle fill="#135891" cx="156.171" cy="9.035" r="1.367"/><circle fill="#135891" cx="150.018" cy="12.111" r="1.367"/><circle fill="#135891" cx="153.094" cy="12.111" r="1.367"/><circle fill="#135891" cx="156.171" cy="12.111" r="1.367"/><circle fill="#135891" cx="134.638" cy="12.111" r="1.367"/><circle fill="#135891" cx="137.714" cy="12.111" r="1.367"/><circle fill="#135891" cx="140.791" cy="12.111" r="1.367"/><circle fill="#135891" cx="150.018" cy="15.187" r="1.367"/><circle fill="#135891" cx="153.094" cy="15.187" r="1.367"/><circle fill="#135891" cx="156.171" cy="15.187" r="1.367"/><circle fill="#135891" cx="134.638" cy="15.187" r="1.367"/><circle fill="#135891" cx="137.714" cy="15.187" r="1.367"/><circle fill="#135891" cx="140.791" cy="15.187" r="1.367"/><circle fill="#135891" cx="150.018" cy="18.263" r="1.367"/><circle fill="#135891" cx="153.094" cy="18.263" r="1.367"/><circle fill="#135891" cx="156.171" cy="18.263" r="1.367"/><circle fill="#135891" cx="134.638" cy="18.263" r="1.367"/><circle fill="#135891" cx="137.714" cy="18.263" r="1.367"/><circle fill="#135891" cx="140.791" cy="18.263" r="1.367"/><circle fill="#135891" cx="150.018" cy="21.339" r="1.367"/><circle fill="#135891" cx="153.094" cy="21.339" r="1.367"/><circle fill="#135891" cx="156.171" cy="21.339" r="1.367"/><circle fill="#135891" cx="134.638" cy="21.339" r="1.367"/><circle fill="#135891" cx="137.714" cy="21.339" r="1.367"/><circle fill="#135891" cx="140.791" cy="21.339" r="1.367"/><circle fill="#135891" cx="150.018" cy="24.415" r="1.367"/><circle fill="#135891" cx="153.094" cy="24.415" r="1.367"/><circle fill="#135891" cx="156.171" cy="24.415" r="1.367"/><circle fill="#135891" cx="134.638" cy="24.415" r="1.367"/><circle fill="#135891" cx="137.714" cy="24.415" r="1.367"/><circle fill="#135891" cx="140.791" cy="24.415" r="1.367"/><circle fill="#135891" cx="150.018" cy="27.491" r="1.367"/><circle fill="#135891" cx="153.094" cy="27.491" r="1.367"/><circle fill="#135891" cx="156.171" cy="27.491" r="1.367"/><circle fill="#135891" cx="134.638" cy="27.491" r="1.367"/><circle fill="#135891" cx="137.714" cy="27.491" r="1.367"/><circle fill="#135891" cx="140.791" cy="27.491" r="1.367"/><circle fill="#135891" cx="150.018" cy="30.567" r="1.367"/><circle fill="#135891" cx="153.094" cy="30.567" r="1.367"/><circle fill="#135891" cx="156.171" cy="30.567" r="1.367"/><circle fill="#135891" cx="134.638" cy="30.567" r="1.367"/><circle fill="#135891" cx="137.714" cy="30.567" r="1.367"/><circle fill="#135891" cx="140.791" cy="30.567" r="1.367"/><circle fill="#135891" cx="150.018" cy="33.644" r="1.367"/><circle fill="#135891" cx="153.094" cy="33.644" r="1.367"/><circle fill="#135891" cx="156.171" cy="33.644" r="1.367"/><circle fill="#135891" cx="134.638" cy="33.644" r="1.367"/><circle fill="#135891" cx="137.714" cy="33.644" r="1.367"/><circle fill="#135891" cx="140.791" cy="33.644" r="1.367"/><circle fill="#135891" cx="134.638" cy="9.035" r="1.367"/><circle fill="#A00A16" cx="161.639" cy="33.644" r="1.367"/><circle fill="#A00A16" cx="164.716" cy="33.644" r="1.367"/><circle fill="#A00A16" cx="161.639" cy="30.567" r="1.367"/><circle fill="#A00A16" cx="164.716" cy="30.567" r="1.367"/><circle fill="#A00A16" cx="173.944" cy="33.644" r="1.367"/><circle fill="#A00A16" cx="177.02" cy="33.644" r="1.367"/><circle fill="#A00A16" cx="180.096" cy="33.644" r="1.367"/><circle fill="#A00A16" cx="183.173" cy="33.644" r="1.367"/><circle fill="#A00A16" cx="173.944" cy="30.567" r="1.367"/><circle fill="#A00A16" cx="177.02" cy="30.567" r="1.367"/><circle fill="#A00A16" cx="180.096" cy="30.567" r="1.367"/><circle fill="#A00A16" cx="183.173" cy="30.567" r="1.367"/><circle fill="#A00A16" cx="186.25" cy="30.567" r="1.367"/><circle fill="#A00A16" cx="170.869" cy="30.567" r="1.367"/><circle fill="#A00A16" cx="173.944" cy="27.491" r="1.367"/><circle fill="#A00A16" cx="170.869" cy="27.491" r="1.367"/><circle fill="#A00A16" cx="173.944" cy="24.415" r="1.367"/><circle fill="#A00A16" cx="170.869" cy="24.415" r="1.367"/><circle fill="#A00A16" cx="173.944" cy="21.339" r="1.367"/><circle fill="#A00A16" cx="170.869" cy="21.339" r="1.367"/><circle fill="#A00A16" cx="173.944" cy="18.263" r="1.367"/><circle fill="#A00A16" cx="170.869" cy="18.263" r="1.367"/><circle fill="#A00A16" cx="173.944" cy="15.187" r="1.367"/><circle fill="#A00A16" cx="170.869" cy="15.187" r="1.367"/><circle fill="#A00A16" cx="173.944" cy="12.111" r="1.367"/><circle fill="#A00A16" cx="170.869" cy="12.111" r="1.367"/><circle fill="#A00A16" cx="173.944" cy="9.035" r="1.367"/><circle fill="#A00A16" cx="170.869" cy="9.035" r="1.367"/><circle fill="#A00A16" cx="194.452" cy="30.567" r="1.367"/><circle fill="#A00A16" cx="191.376" cy="30.567" r="1.367"/><circle fill="#A00A16" cx="194.452" cy="33.644" r="1.367"/><circle fill="#A00A16" cx="191.376" cy="33.644" r="1.367"/><circle fill="#A00A16" cx="194.452" cy="27.491" r="1.367"/><circle fill="#A00A16" cx="191.376" cy="27.491" r="1.367"/><circle fill="#A00A16" cx="194.452" cy="24.415" r="1.367"/><circle fill="#A00A16" cx="191.376" cy="24.415" r="1.367"/><circle fill="#A00A16" cx="194.452" cy="21.339" r="1.367"/><circle fill="#A00A16" cx="191.376" cy="21.339" r="1.367"/><circle fill="#A00A16" cx="194.452" cy="18.263" r="1.367"/><circle fill="#A00A16" cx="191.376" cy="18.263" r="1.367"/><circle fill="#A00A16" cx="194.452" cy="15.187" r="1.367"/><circle fill="#A00A16" cx="191.376" cy="15.187" r="1.367"/><circle fill="#A00A16" cx="194.452" cy="12.111" r="1.367"/><circle fill="#A00A16" cx="191.376" cy="12.111" r="1.367"/><circle fill="#A00A16" cx="194.452" cy="9.035" r="1.367"/><circle fill="#A00A16" cx="191.376" cy="9.035" r="1.367"/><circle fill="#A00A16" cx="200.603" cy="9.035" r="1.367"/><circle fill="#A00A16" cx="203.679" cy="9.035" r="1.367"/><circle fill="#A00A16" cx="197.527" cy="9.035" r="1.367"/><circle fill="#A00A16" cx="194.452" cy="5.959" r="1.367"/><circle fill="#A00A16" cx="191.376" cy="5.959" r="1.367"/><circle fill="#A00A16" cx="200.603" cy="5.959" r="1.367"/><circle fill="#A00A16" cx="203.679" cy="5.959" r="1.367"/><circle fill="#A00A16" cx="197.527" cy="5.959" r="1.367"/><circle fill="#A00A16" cx="200.603" cy="22.708" r="1.367"/><circle fill="#A00A16" cx="203.679" cy="22.708" r="1.367"/><circle fill="#A00A16" cx="197.527" cy="22.708" r="1.367"/><circle fill="#A00A16" cx="200.603" cy="19.63" r="1.367"/><circle fill="#A00A16" cx="203.679" cy="19.63" r="1.367"/><circle fill="#A00A16" cx="197.527" cy="19.63" r="1.367"/><circle fill="#A00A16" cx="200.603" cy="33.644" r="1.367"/><circle fill="#A00A16" cx="203.679" cy="33.644" r="1.367"/><circle fill="#A00A16" cx="197.527" cy="33.644" r="1.367"/><circle fill="#A00A16" cx="200.603" cy="30.567" r="1.367"/><circle fill="#A00A16" cx="203.679" cy="30.567" r="1.367"/><circle fill="#A00A16" cx="197.527" cy="30.567" r="1.367"/><circle fill="#A00A16" cx="180.096" cy="9.035" r="1.367"/><circle fill="#A00A16" cx="177.02" cy="9.035" r="1.367"/><circle fill="#A00A16" cx="186.25" cy="9.035" r="1.367"/><circle fill="#A00A16" cx="183.173" cy="9.035" r="1.367"/><circle fill="#A00A16" cx="173.944" cy="5.959" r="1.367"/><circle fill="#A00A16" cx="180.096" cy="5.959" r="1.367"/><circle fill="#A00A16" cx="177.02" cy="5.959" r="1.367"/><circle fill="#A00A16" cx="183.173" cy="5.959" r="1.367"/><circle fill="#A00A16" cx="186.25" cy="12.111" r="1.367"/><circle fill="#A00A16" cx="183.173" cy="12.111" r="1.367"/><circle fill="#A00A16" cx="186.25" cy="15.187" r="1.367"/><circle fill="#A00A16" cx="183.173" cy="15.187" r="1.367"/><circle fill="#A00A16" cx="186.25" cy="27.491" r="1.367"/><circle fill="#A00A16" cx="183.173" cy="27.491" r="1.367"/><circle fill="#A00A16" cx="186.25" cy="24.415" r="1.367"/><circle fill="#A00A16" cx="183.173" cy="24.415" r="1.367"/><circle fill="#A00A16" cx="180.096" cy="24.415" r="1.367"/><circle fill="#A00A16" cx="186.25" cy="21.339" r="1.367"/><circle fill="#A00A16" cx="183.173" cy="21.339" r="1.367"/><circle fill="#A00A16" cx="180.096" cy="21.339" r="1.367"/></svg>